<svg width="75" height="20" viewBox="0 0 75 20" fill="none" xmlns="http://www.w3.org/2000/svg">
<rect width="75" height="20" rx="2" fill="#2D2E32"/>
<path d="M15.4375 13H12.9688V5H15.5469C16.3229 5 16.987 5.16016 17.5391 5.48047C18.0911 5.79818 18.5143 6.25521 18.8086 6.85156C19.1029 7.44531 19.25 8.15625 19.25 8.98437C19.25 9.81771 19.1016 10.5352 18.8047 11.1367C18.5078 11.7357 18.0755 12.1966 17.5078 12.5195C16.9401 12.8398 16.25 13 15.4375 13ZM13.9375 12.1406H15.375C16.0365 12.1406 16.5846 12.013 17.0195 11.7578C17.4544 11.5026 17.7786 11.1393 17.9922 10.668C18.2057 10.1966 18.3125 9.63542 18.3125 8.98437C18.3125 8.33854 18.207 7.78255 17.9961 7.31641C17.7852 6.84766 17.4701 6.48828 17.0508 6.23828C16.6315 5.98568 16.1094 5.85937 15.4844 5.85937H13.9375V12.1406ZM22.2956 13.1406C21.9154 13.1406 21.5704 13.069 21.2605 12.9258C20.9506 12.7799 20.7045 12.5703 20.5222 12.2969C20.3399 12.0208 20.2488 11.6875 20.2488 11.2969C20.2488 10.9531 20.3165 10.6745 20.4519 10.4609C20.5873 10.2448 20.7683 10.0755 20.9948 9.95312C21.2214 9.83073 21.4714 9.73958 21.7448 9.67969C22.0209 9.61719 22.2982 9.56771 22.5769 9.53125C22.9415 9.48437 23.237 9.44922 23.4636 9.42578C23.6928 9.39974 23.8594 9.35677 23.9636 9.29687C24.0704 9.23698 24.1238 9.13281 24.1238 8.98437V8.95312C24.1238 8.56771 24.0183 8.26823 23.8073 8.05469C23.599 7.84115 23.2826 7.73437 22.8581 7.73437C22.418 7.73437 22.073 7.83073 21.823 8.02344C21.573 8.21615 21.3972 8.42187 21.2956 8.64062L20.4206 8.32812C20.5769 7.96354 20.7852 7.67969 21.0456 7.47656C21.3086 7.27083 21.5951 7.1276 21.905 7.04687C22.2175 6.96354 22.5248 6.92188 22.8269 6.92188C23.0196 6.92188 23.2409 6.94531 23.4909 6.99219C23.7435 7.03646 23.987 7.12891 24.2214 7.26953C24.4584 7.41016 24.655 7.6224 24.8113 7.90625C24.9675 8.1901 25.0456 8.57031 25.0456 9.04688V13H24.1238V12.1875H24.0769C24.0144 12.3177 23.9102 12.457 23.7644 12.6055C23.6185 12.7539 23.4245 12.8802 23.1823 12.9844C22.9402 13.0885 22.6446 13.1406 22.2956 13.1406ZM22.4363 12.3125C22.8008 12.3125 23.1081 12.2409 23.3581 12.0977C23.6107 11.9544 23.8008 11.7695 23.9284 11.543C24.0586 11.3164 24.1238 11.0781 24.1238 10.8281V9.98437C24.0847 10.0312 23.9988 10.0742 23.8659 10.1133C23.7357 10.1497 23.5847 10.1823 23.4128 10.2109C23.2435 10.237 23.0782 10.2604 22.9167 10.2812C22.7579 10.2995 22.629 10.3151 22.53 10.3281C22.2904 10.3594 22.0665 10.4102 21.8581 10.4805C21.6524 10.5482 21.4857 10.651 21.3581 10.7891C21.2331 10.9245 21.1706 11.1094 21.1706 11.3437C21.1706 11.6641 21.2891 11.9062 21.5261 12.0703C21.7657 12.2318 22.0691 12.3125 22.4363 12.3125ZM26.5082 13V7H27.4301V13H26.5082ZM26.977 6C26.7973 6 26.6424 5.9388 26.5121 5.81641C26.3845 5.69401 26.3207 5.54688 26.3207 5.375C26.3207 5.20313 26.3845 5.05599 26.5121 4.93359C26.6424 4.8112 26.7973 4.75 26.977 4.75C27.1567 4.75 27.3103 4.8112 27.4379 4.93359C27.5681 5.05599 27.6332 5.20313 27.6332 5.375C27.6332 5.54688 27.5681 5.69401 27.4379 5.81641C27.3103 5.9388 27.1567 6 26.977 6ZM29.8205 5V13H28.8986V5H29.8205ZM31.8827 15.25C31.7264 15.25 31.5871 15.237 31.4647 15.2109C31.3423 15.1875 31.2577 15.1641 31.2108 15.1406L31.4452 14.3281C31.6692 14.3854 31.8671 14.4063 32.0389 14.3906C32.2108 14.375 32.3632 14.2982 32.496 14.1602C32.6314 14.0247 32.7551 13.8047 32.8671 13.5L33.0389 13.0313L30.8202 7H31.8202L33.4764 11.7812H33.5389L35.1952 7H36.1952L33.6483 13.875C33.5337 14.1849 33.3918 14.4414 33.2225 14.6445C33.0533 14.8503 32.8567 15.0026 32.6327 15.1016C32.4113 15.2005 32.1613 15.25 31.8827 15.25Z" fill="white"/>
<path fill-rule="evenodd" clip-rule="evenodd" d="M58.7273 7.27273V5.9091H58.1818C57.4287 5.9091 56.8182 6.51962 56.8182 7.27273V8.63637H67.1818V7.27273C67.1818 6.51962 66.5713 5.9091 65.8182 5.9091H65.7727V7.27273H64.2727V5.9091H60.2273V7.27273H58.7273ZM64.2727 5.09091H60.2273V4H58.7273V5.09091H58.1818C56.9768 5.09091 56 6.06775 56 7.27273V8.63637V9.45455V13.8182C56 15.0232 56.9768 16 58.1818 16H65.8182C67.0232 16 68 15.0232 68 13.8182V9.45455V8.63637V7.27273C68 6.06775 67.0232 5.09091 65.8182 5.09091H65.7727V4H64.2727V5.09091ZM67.1818 9.45455V13.8182C67.1818 14.5713 66.5713 15.1818 65.8182 15.1818H58.1818C57.4287 15.1818 56.8182 14.5713 56.8182 13.8182V9.45455H67.1818Z" fill="white"/>
</svg>
