<svg width="58" height="22" viewBox="0 0 58 22" fill="none" xmlns="http://www.w3.org/2000/svg">
<rect width="58" height="22" rx="2" fill="#2D2E32"/>
<path d="M8.4375 14.3H5.96875V6.29999H8.54688C9.32292 6.29999 9.98698 6.46014 10.5391 6.78046C11.0911 7.09816 11.5143 7.5552 11.8086 8.15155C12.1029 8.7453 12.25 9.45624 12.25 10.2844C12.25 11.1177 12.1016 11.8351 11.8047 12.4367C11.5078 13.0357 11.0755 13.4966 10.5078 13.8195C9.9401 14.1398 9.25 14.3 8.4375 14.3ZM6.9375 13.4406H8.375C9.03646 13.4406 9.58464 13.313 10.0195 13.0578C10.4544 12.8026 10.7786 12.4393 10.9922 11.968C11.2057 11.4966 11.3125 10.9354 11.3125 10.2844C11.3125 9.63853 11.207 9.08254 10.9961 8.61639C10.7852 8.14764 10.4701 7.78827 10.0508 7.53827C9.63151 7.28566 9.10938 7.15936 8.48438 7.15936H6.9375V13.4406ZM15.2956 14.4406C14.9154 14.4406 14.5704 14.369 14.2605 14.2258C13.9506 14.0799 13.7045 13.8703 13.5222 13.5969C13.3399 13.3208 13.2488 12.9875 13.2488 12.5969C13.2488 12.2531 13.3165 11.9745 13.4519 11.7609C13.5873 11.5448 13.7683 11.3755 13.9948 11.2531C14.2214 11.1307 14.4714 11.0396 14.7448 10.9797C15.0209 10.9172 15.2982 10.8677 15.5769 10.8312C15.9415 10.7844 16.237 10.7492 16.4636 10.7258C16.6928 10.6997 16.8594 10.6568 16.9636 10.5969C17.0704 10.537 17.1238 10.4328 17.1238 10.2844V10.2531C17.1238 9.8677 17.0183 9.56822 16.8073 9.35468C16.599 9.14113 16.2826 9.03436 15.8581 9.03436C15.418 9.03436 15.073 9.13072 14.823 9.32343C14.573 9.51613 14.3972 9.72186 14.2956 9.94061L13.4206 9.62811C13.5769 9.26353 13.7852 8.97968 14.0456 8.77655C14.3086 8.57082 14.5951 8.42759 14.905 8.34686C15.2175 8.26353 15.5248 8.22186 15.8269 8.22186C16.0196 8.22186 16.2409 8.2453 16.4909 8.29217C16.7435 8.33645 16.987 8.42889 17.2214 8.56952C17.4584 8.71014 17.655 8.92238 17.8113 9.20624C17.9675 9.49009 18.0456 9.8703 18.0456 10.3469V14.3H17.1238V13.4875H17.0769C17.0144 13.6177 16.9102 13.757 16.7644 13.9055C16.6185 14.0539 16.4245 14.1802 16.1823 14.2844C15.9402 14.3885 15.6446 14.4406 15.2956 14.4406ZM15.4363 13.6125C15.8008 13.6125 16.1081 13.5409 16.3581 13.3976C16.6107 13.2544 16.8008 13.0695 16.9284 12.843C17.0586 12.6164 17.1238 12.3781 17.1238 12.1281V11.2844C17.0847 11.3312 16.9988 11.3742 16.8659 11.4133C16.7357 11.4497 16.5847 11.4823 16.4128 11.5109C16.2435 11.537 16.0782 11.5604 15.9167 11.5812C15.7579 11.5995 15.629 11.6151 15.53 11.6281C15.2904 11.6594 15.0665 11.7101 14.8581 11.7805C14.6524 11.8482 14.4857 11.951 14.3581 12.0891C14.2331 12.2245 14.1706 12.4094 14.1706 12.6437C14.1706 12.9641 14.2891 13.2062 14.5261 13.3703C14.7657 13.5318 15.0691 13.6125 15.4363 13.6125ZM22.1176 8.29999V9.08124H19.0082V8.29999H22.1176ZM19.9145 6.86249H20.8364V12.5812C20.8364 12.8417 20.8741 13.037 20.9496 13.1672C21.0278 13.2948 21.1267 13.3807 21.2465 13.425C21.3689 13.4667 21.4978 13.4875 21.6332 13.4875C21.7348 13.4875 21.8181 13.4823 21.8832 13.4719C21.9483 13.4588 22.0004 13.4484 22.0395 13.4406L22.227 14.2687C22.1645 14.2922 22.0773 14.3156 21.9653 14.3391C21.8533 14.3651 21.7114 14.3781 21.5395 14.3781C21.2791 14.3781 21.0239 14.3221 20.7739 14.2101C20.5265 14.0982 20.3207 13.9276 20.1567 13.6984C19.9952 13.4693 19.9145 13.1802 19.9145 12.8312V6.86249ZM25.7355 14.425C25.1574 14.425 24.6587 14.2974 24.2394 14.0422C23.8227 13.7844 23.5011 13.425 23.2746 12.9641C23.0506 12.5005 22.9386 11.9614 22.9386 11.3469C22.9386 10.7323 23.0506 10.1906 23.2746 9.72186C23.5011 9.25051 23.8162 8.88332 24.2199 8.6203C24.6261 8.35468 25.1001 8.22186 25.6418 8.22186C25.9543 8.22186 26.2629 8.27395 26.5675 8.37811C26.8722 8.48228 27.1496 8.65155 27.3996 8.88593C27.6496 9.1177 27.8488 9.42499 27.9972 9.8078C28.1457 10.1906 28.2199 10.662 28.2199 11.2219V11.6125H23.5949V10.8156H27.2824C27.2824 10.4771 27.2147 10.175 27.0793 9.90936C26.9464 9.64374 26.7563 9.4341 26.5089 9.28046C26.2642 9.12681 25.9751 9.04999 25.6418 9.04999C25.2746 9.04999 24.9569 9.14113 24.6886 9.32343C24.423 9.50311 24.2186 9.73749 24.0754 10.0266C23.9321 10.3156 23.8605 10.6255 23.8605 10.9562V11.4875C23.8605 11.9406 23.9386 12.3247 24.0949 12.6398C24.2537 12.9523 24.4738 13.1906 24.755 13.3547C25.0363 13.5161 25.3631 13.5969 25.7355 13.5969C25.9777 13.5969 26.1964 13.563 26.3918 13.4953C26.5897 13.425 26.7602 13.3208 26.9035 13.1828C27.0467 13.0422 27.1574 12.8677 27.2355 12.6594L28.1261 12.9094C28.0324 13.2114 27.8748 13.4771 27.6535 13.7062C27.4321 13.9328 27.1587 14.1099 26.8332 14.2375C26.5076 14.3625 26.1418 14.425 25.7355 14.425Z" fill="white"/>
<path fill-rule="evenodd" clip-rule="evenodd" d="M41.7273 8.47274V7.10911H41.1818C40.4287 7.10911 39.8182 7.71963 39.8182 8.47274V9.83638H50.1818V8.47274C50.1818 7.71963 49.5713 7.10911 48.8182 7.10911H48.7727V8.47274H47.2727V7.10911H43.2273V8.47274H41.7273ZM47.2727 6.29093H43.2273V5.20001H41.7273V6.29093H41.1818C39.9768 6.29093 39 7.26776 39 8.47274V9.83638V10.6546V15.0182C39 16.2232 39.9768 17.2 41.1818 17.2H48.8182C50.0232 17.2 51 16.2232 51 15.0182V10.6546V9.83638V8.47274C51 7.26776 50.0232 6.29093 48.8182 6.29093H48.7727V5.20001H47.2727V6.29093ZM50.1818 10.6546V15.0182C50.1818 15.7713 49.5713 16.3818 48.8182 16.3818H41.1818C40.4287 16.3818 39.8182 15.7713 39.8182 15.0182V10.6546H50.1818Z" fill="white"/>
</svg>
