<svg width="75" height="21" viewBox="0 0 75 21" fill="none" xmlns="http://www.w3.org/2000/svg">
<rect y="0.5" width="75" height="20" rx="2" fill="#2D2E32"/>
<path d="M6.96875 6.5H8.125L10.8438 13.1406H10.9375L13.6563 6.5H14.8125V14.5H13.9062V8.42188H13.8281L11.3281 14.5H10.4531L7.95313 8.42188H7.875V14.5H6.96875V6.5ZM18.8474 14.625C18.3057 14.625 17.8305 14.4961 17.4216 14.2383C17.0154 13.9805 16.6976 13.6198 16.4685 13.1562C16.2419 12.6927 16.1286 12.151 16.1286 11.5312C16.1286 10.9062 16.2419 10.3607 16.4685 9.89453C16.6976 9.42839 17.0154 9.06641 17.4216 8.80859C17.8305 8.55078 18.3057 8.42188 18.8474 8.42188C19.389 8.42188 19.863 8.55078 20.2693 8.80859C20.6781 9.06641 20.9958 9.42839 21.2224 9.89453C21.4515 10.3607 21.5661 10.9062 21.5661 11.5312C21.5661 12.151 21.4515 12.6927 21.2224 13.1562C20.9958 13.6198 20.6781 13.9805 20.2693 14.2383C19.863 14.4961 19.389 14.625 18.8474 14.625ZM18.8474 13.7969C19.2588 13.7969 19.5974 13.6914 19.863 13.4805C20.1286 13.2695 20.3252 12.9922 20.4529 12.6484C20.5805 12.3047 20.6443 11.9323 20.6443 11.5312C20.6443 11.1302 20.5805 10.7565 20.4529 10.4102C20.3252 10.0638 20.1286 9.78385 19.863 9.57031C19.5974 9.35677 19.2588 9.25 18.8474 9.25C18.4359 9.25 18.0974 9.35677 17.8318 9.57031C17.5661 9.78385 17.3695 10.0638 17.2419 10.4102C17.1143 10.7565 17.0505 11.1302 17.0505 11.5312C17.0505 11.9323 17.1143 12.3047 17.2419 12.6484C17.3695 12.9922 17.5661 13.2695 17.8318 13.4805C18.0974 13.6914 18.4359 13.7969 18.8474 13.7969ZM23.6752 10.8906V14.5H22.7534V8.5H23.644V9.4375H23.7221C23.8627 9.13281 24.0763 8.88802 24.3627 8.70313C24.6492 8.51563 25.019 8.42188 25.4721 8.42188C25.8784 8.42188 26.2338 8.50521 26.5385 8.67187C26.8432 8.83594 27.0802 9.08594 27.2495 9.42187C27.4187 9.75521 27.5034 10.1771 27.5034 10.6875V14.5H26.5815V10.75C26.5815 10.2786 26.4591 9.91146 26.2143 9.64844C25.9695 9.38281 25.6336 9.25 25.2065 9.25C24.9122 9.25 24.6492 9.3138 24.4174 9.44141C24.1883 9.56901 24.0073 9.75521 23.8745 10C23.7416 10.2448 23.6752 10.5417 23.6752 10.8906ZM31.5773 8.5V9.28125H28.4679V8.5H31.5773ZM29.3742 7.0625H30.2961V12.7812C30.2961 13.0417 30.3338 13.237 30.4093 13.3672C30.4875 13.4948 30.5864 13.5807 30.7062 13.625C30.8286 13.6667 30.9575 13.6875 31.0929 13.6875C31.1945 13.6875 31.2778 13.6823 31.3429 13.6719C31.408 13.6589 31.4601 13.6484 31.4992 13.6406L31.6867 14.4687C31.6242 14.4922 31.5369 14.5156 31.425 14.5391C31.313 14.5651 31.1711 14.5781 30.9992 14.5781C30.7388 14.5781 30.4836 14.5221 30.2336 14.4102C29.9862 14.2982 29.7804 14.1276 29.6164 13.8984C29.4549 13.6693 29.3742 13.3802 29.3742 13.0312V7.0625ZM33.7948 10.8906V14.5H32.8729V6.5H33.7948V9.4375H33.8729C34.0136 9.1276 34.2245 8.88151 34.5057 8.69922C34.7896 8.51432 35.1672 8.42188 35.6386 8.42188C36.0474 8.42188 36.4055 8.50391 36.7128 8.66797C37.0201 8.82943 37.2583 9.07812 37.4276 9.41406C37.5995 9.7474 37.6854 10.1719 37.6854 10.6875V14.5H36.7636V10.75C36.7636 10.2734 36.6399 9.90495 36.3925 9.64453C36.1477 9.38151 35.8078 9.25 35.3729 9.25C35.0708 9.25 34.8 9.3138 34.5604 9.44141C34.3235 9.56901 34.136 9.75521 33.9979 10C33.8625 10.2448 33.7948 10.5417 33.7948 10.8906ZM40.0738 6.5V14.5H39.152V6.5H40.0738ZM42.1361 16.75C41.9798 16.75 41.8405 16.737 41.7181 16.7109C41.5957 16.6875 41.5111 16.6641 41.4642 16.6406L41.6986 15.8281C41.9225 15.8854 42.1204 15.9063 42.2923 15.8906C42.4642 15.875 42.6165 15.7982 42.7493 15.6602C42.8848 15.5247 43.0085 15.3047 43.1204 15L43.2923 14.5313L41.0736 8.5H42.0736L43.7298 13.2812H43.7923L45.4486 8.5H46.4486L43.9017 15.375C43.7871 15.6849 43.6452 15.9414 43.4759 16.1445C43.3066 16.3503 43.11 16.5026 42.8861 16.6016C42.6647 16.7005 42.4147 16.75 42.1361 16.75Z" fill="white"/>
<path fill-rule="evenodd" clip-rule="evenodd" d="M58.7273 8.77273V7.4091H58.1818C57.4287 7.4091 56.8182 8.01962 56.8182 8.77273V10.1364H67.1818V8.77273C67.1818 8.01962 66.5713 7.4091 65.8182 7.4091H65.7727V8.77273H64.2727V7.4091H60.2273V8.77273H58.7273ZM64.2727 6.59091H60.2273V5.5H58.7273V6.59091H58.1818C56.9768 6.59091 56 7.56775 56 8.77273V10.1364V10.9545V15.3182C56 16.5232 56.9768 17.5 58.1818 17.5H65.8182C67.0232 17.5 68 16.5232 68 15.3182V10.9545V10.1364V8.77273C68 7.56775 67.0232 6.59091 65.8182 6.59091H65.7727V5.5H64.2727V6.59091ZM67.1818 10.9545V15.3182C67.1818 16.0713 66.5713 16.6818 65.8182 16.6818H58.1818C57.4287 16.6818 56.8182 16.0713 56.8182 15.3182V10.9545H67.1818Z" fill="white"/>
</svg>
