<svg width="75" height="21" viewBox="0 0 75 21" fill="none" xmlns="http://www.w3.org/2000/svg">
<rect y="0.666656" width="75" height="20" rx="2" fill="#2D2E32"/>
<path d="M8.42188 14.6667L6.23438 6.66666H7.21875L8.89063 13.1823H8.96875L10.6719 6.66666H11.7656L13.4688 13.1823H13.5469L15.2188 6.66666H16.2031L14.0156 14.6667H13.0156L11.25 8.29166H11.1875L9.42188 14.6667H8.42188ZM19.0222 14.7917C18.4441 14.7917 17.9454 14.6641 17.5261 14.4088C17.1094 14.151 16.7878 13.7917 16.5612 13.3307C16.3373 12.8672 16.2253 12.3281 16.2253 11.7135C16.2253 11.0989 16.3373 10.5573 16.5612 10.0885C16.7878 9.61718 17.1029 9.24999 17.5066 8.98697C17.9128 8.72134 18.3868 8.58853 18.9284 8.58853C19.2409 8.58853 19.5495 8.64061 19.8542 8.74478C20.1589 8.84895 20.4362 9.01822 20.6862 9.25259C20.9362 9.48436 21.1355 9.79166 21.2839 10.1745C21.4323 10.5573 21.5066 11.0286 21.5066 11.5885V11.9792H16.8816V11.1823H20.5691C20.5691 10.8437 20.5014 10.5417 20.3659 10.276C20.2331 10.0104 20.043 9.80077 19.7956 9.64713C19.5508 9.49348 19.2618 9.41666 18.9284 9.41666C18.5612 9.41666 18.2435 9.5078 17.9753 9.69009C17.7097 9.86978 17.5053 10.1042 17.362 10.3932C17.2188 10.6823 17.1472 10.9922 17.1472 11.3229V11.8542C17.1472 12.3073 17.2253 12.6914 17.3816 13.0065C17.5404 13.319 17.7605 13.5573 18.0417 13.7213C18.323 13.8828 18.6498 13.9635 19.0222 13.9635C19.2644 13.9635 19.4831 13.9297 19.6784 13.862C19.8764 13.7917 20.0469 13.6875 20.1902 13.5495C20.3334 13.4088 20.4441 13.2344 20.5222 13.026L21.4128 13.276C21.3191 13.5781 21.1615 13.8437 20.9402 14.0729C20.7188 14.2995 20.4454 14.4766 20.1198 14.6042C19.7943 14.7292 19.4284 14.7917 19.0222 14.7917ZM25.2045 14.7917C24.6264 14.7917 24.1277 14.6641 23.7084 14.4088C23.2918 14.151 22.9702 13.7917 22.7436 13.3307C22.5196 12.8672 22.4077 12.3281 22.4077 11.7135C22.4077 11.0989 22.5196 10.5573 22.7436 10.0885C22.9702 9.61718 23.2853 9.24999 23.6889 8.98697C24.0952 8.72134 24.5691 8.58853 25.1108 8.58853C25.4233 8.58853 25.7319 8.64061 26.0366 8.74478C26.3413 8.84895 26.6186 9.01822 26.8686 9.25259C27.1186 9.48436 27.3178 9.79166 27.4663 10.1745C27.6147 10.5573 27.6889 11.0286 27.6889 11.5885V11.9792H23.0639V11.1823H26.7514C26.7514 10.8437 26.6837 10.5417 26.5483 10.276C26.4155 10.0104 26.2254 9.80077 25.978 9.64713C25.7332 9.49348 25.4441 9.41666 25.1108 9.41666C24.7436 9.41666 24.4259 9.5078 24.1577 9.69009C23.892 9.86978 23.6876 10.1042 23.5444 10.3932C23.4011 10.6823 23.3295 10.9922 23.3295 11.3229V11.8542C23.3295 12.3073 23.4077 12.6914 23.5639 13.0065C23.7228 13.319 23.9428 13.5573 24.2241 13.7213C24.5053 13.8828 24.8321 13.9635 25.2045 13.9635C25.4467 13.9635 25.6655 13.9297 25.8608 13.862C26.0587 13.7917 26.2293 13.6875 26.3725 13.5495C26.5157 13.4088 26.6264 13.2344 26.7045 13.026L27.5952 13.276C27.5014 13.5781 27.3439 13.8437 27.1225 14.0729C26.9011 14.2995 26.6277 14.4766 26.3022 14.6042C25.9767 14.7292 25.6108 14.7917 25.2045 14.7917ZM29.7306 12.4792L29.715 11.3385H29.9025L32.5275 8.66666H33.6681L30.8713 11.4948H30.7931L29.7306 12.4792ZM28.8713 14.6667V6.66666H29.7931V14.6667H28.8713ZM32.6838 14.6667L30.34 11.6979L30.9963 11.0573L33.8556 14.6667H32.6838ZM35.5565 6.66666V14.6667H34.6346V6.66666H35.5565ZM37.6187 16.9167C37.4625 16.9167 37.3232 16.9036 37.2008 16.8776C37.0784 16.8542 36.9937 16.8307 36.9469 16.8073L37.1812 15.9948C37.4052 16.0521 37.6031 16.0729 37.775 16.0573C37.9469 16.0417 38.0992 15.9648 38.232 15.8268C38.3674 15.6914 38.4911 15.4713 38.6031 15.1667L38.775 14.6979L36.5562 8.66666H37.5562L39.2125 13.4479H39.275L40.9312 8.66666H41.9313L39.3844 15.5417C39.2698 15.8516 39.1279 16.1081 38.9586 16.3112C38.7893 16.5169 38.5927 16.6693 38.3687 16.7682C38.1474 16.8672 37.8974 16.9167 37.6187 16.9167Z" fill="white"/>
<path fill-rule="evenodd" clip-rule="evenodd" d="M58.7273 8.93938V7.57575H58.1818C57.4287 7.57575 56.8182 8.18627 56.8182 8.93939V10.303H67.1818V8.93939C67.1818 8.18627 66.5713 7.57575 65.8182 7.57575H65.7727V8.93938H64.2727V7.57575H60.2273V8.93938H58.7273ZM64.2727 6.75757H60.2273V5.66666H58.7273V6.75757H58.1818C56.9768 6.75757 56 7.7344 56 8.93939V10.303V11.1212V15.4848C56 16.6898 56.9768 17.6667 58.1818 17.6667H65.8182C67.0232 17.6667 68 16.6898 68 15.4848V11.1212V10.303V8.93939C68 7.7344 67.0232 6.75757 65.8182 6.75757H65.7727V5.66666H64.2727V6.75757ZM67.1818 11.1212V15.4848C67.1818 16.238 66.5713 16.8485 65.8182 16.8485H58.1818C57.4287 16.8485 56.8182 16.238 56.8182 15.4848V11.1212H67.1818Z" fill="white"/>
</svg>
